<svg width="28" height="28" viewBox="0 0 28 28" fill="none" xmlns="http://www.w3.org/2000/svg">
<path d="M14.0234 23.9517C11.3051 23.9517 8.58672 23.52 6.00838 22.6567C5.02838 22.3183 4.28172 21.63 3.95505 20.7317C3.61672 19.8333 3.73338 18.8417 4.27005 17.955L5.61172 15.7267C5.89172 15.26 6.14838 14.3267 6.14838 13.7783V10.4067C6.14838 6.06668 9.68338 2.53168 14.0234 2.53168C18.3634 2.53168 21.8984 6.06668 21.8984 10.4067V13.7783C21.8984 14.315 22.155 15.26 22.435 15.7383L23.7651 17.955C24.2667 18.795 24.36 19.81 24.0217 20.7317C23.6834 21.6533 22.9484 22.3533 22.0267 22.6567C19.46 23.52 16.7417 23.9517 14.0234 23.9517ZM14.0234 4.28168C10.6517 4.28168 7.89838 7.02334 7.89838 10.4067V13.7783C7.89838 14.63 7.54838 15.89 7.11672 16.625L5.77505 18.8533C5.51838 19.285 5.44838 19.74 5.60005 20.125C5.74005 20.5217 6.09005 20.825 6.56838 20.9883C11.4451 22.6217 16.6134 22.6217 21.4901 20.9883C21.9101 20.8483 22.2367 20.5333 22.3884 20.1133C22.5401 19.6933 22.5051 19.2383 22.2717 18.8533L20.9301 16.625C20.4867 15.8667 20.1484 14.6183 20.1484 13.7667V10.4067C20.1484 7.02334 17.4067 4.28168 14.0234 4.28168Z" fill="white"/>
<path d="M16.1934 4.59668C16.1117 4.59668 16.0301 4.58501 15.9484 4.56168C15.6101 4.46835 15.2834 4.39835 14.9684 4.35168C13.9767 4.22335 13.0201 4.29335 12.1217 4.56168C11.7951 4.66668 11.4451 4.56168 11.2234 4.31668C11.0017 4.07168 10.9317 3.72168 11.0601 3.40668C11.5384 2.18168 12.7051 1.37668 14.0351 1.37668C15.3651 1.37668 16.5317 2.17001 17.0101 3.40668C17.1267 3.72168 17.0684 4.07168 16.8467 4.31668C16.6717 4.50335 16.4267 4.59668 16.1934 4.59668Z" fill="white"/>
<path d="M14.0233 26.6117C12.8683 26.6117 11.7483 26.145 10.9316 25.3283C10.115 24.5117 9.64832 23.3917 9.64832 22.2367H11.3983C11.3983 22.925 11.6783 23.6017 12.1683 24.0917C12.6583 24.5817 13.335 24.8617 14.0233 24.8617C15.47 24.8617 16.6483 23.6833 16.6483 22.2367H18.3983C18.3983 24.6517 16.4383 26.6117 14.0233 26.6117Z" fill="white"/>
</svg>
