<svg width="22" height="22" viewBox="0 0 22 22" fill="none" xmlns="http://www.w3.org/2000/svg">
<path d="M8.25004 20.1667H13.75C18.3334 20.1667 20.1667 18.3333 20.1667 13.75V8.25001C20.1667 3.66668 18.3334 1.83334 13.75 1.83334H8.25004C3.66671 1.83334 1.83337 3.66668 1.83337 8.25001V13.75C1.83337 18.3333 3.66671 20.1667 8.25004 20.1667Z" stroke="#CCCCCC" stroke-width="0.916667" stroke-linecap="round" stroke-linejoin="round"/>
<path d="M14.2728 16.958V13.383" stroke="#CCCCCC" stroke-width="0.916667" stroke-miterlimit="10" stroke-linecap="round" stroke-linejoin="round"/>
<path d="M14.2728 6.82916V5.04166" stroke="#CCCCCC" stroke-width="0.916667" stroke-miterlimit="10" stroke-linecap="round" stroke-linejoin="round"/>
<path d="M14.2731 11.5951C15.5894 11.5951 16.6564 10.5281 16.6564 9.21179C16.6564 7.89552 15.5894 6.82846 14.2731 6.82846C12.9568 6.82846 11.8898 7.89552 11.8898 9.21179C11.8898 10.5281 12.9568 11.5951 14.2731 11.5951Z" stroke="#CCCCCC" stroke-width="0.916667" stroke-miterlimit="10" stroke-linecap="round" stroke-linejoin="round"/>
<path d="M7.72717 16.959V15.1715" stroke="#CCCCCC" stroke-width="0.916667" stroke-miterlimit="10" stroke-linecap="round" stroke-linejoin="round"/>
<path d="M7.72717 8.61666V5.04166" stroke="#CCCCCC" stroke-width="0.916667" stroke-miterlimit="10" stroke-linecap="round" stroke-linejoin="round"/>
<path d="M7.72757 15.1705C9.04385 15.1705 10.1109 14.1034 10.1109 12.7871C10.1109 11.4709 9.04385 10.4038 7.72757 10.4038C6.41129 10.4038 5.34424 11.4709 5.34424 12.7871C5.34424 14.1034 6.41129 15.1705 7.72757 15.1705Z" stroke="#CCCCCC" stroke-width="0.916667" stroke-miterlimit="10" stroke-linecap="round" stroke-linejoin="round"/>
</svg>
