<svg width="22" height="22" viewBox="0 0 22 22" fill="none" xmlns="http://www.w3.org/2000/svg">
<path d="M10.0833 19.0208C5.15165 19.0208 1.14581 15.015 1.14581 10.0833C1.14581 5.15168 5.15165 1.14584 10.0833 1.14584C15.015 1.14584 19.0208 5.15168 19.0208 10.0833C19.0208 15.015 15.015 19.0208 10.0833 19.0208ZM10.0833 2.52084C5.91248 2.52084 2.52081 5.91251 2.52081 10.0833C2.52081 14.2542 5.91248 17.6458 10.0833 17.6458C14.2541 17.6458 17.6458 14.2542 17.6458 10.0833C17.6458 5.91251 14.2541 2.52084 10.0833 2.52084Z" fill="white"/>
<path d="M18.4792 20.8908C18.4059 20.8908 18.3326 20.8817 18.2684 20.8725C17.8376 20.8175 17.0584 20.5242 16.6184 19.2133C16.3892 18.5258 16.4717 17.8383 16.8476 17.3158C17.2234 16.7933 17.8559 16.5 18.5801 16.5C19.5151 16.5 20.2484 16.8575 20.5784 17.49C20.9084 18.1225 20.8167 18.9292 20.2942 19.7083C19.6434 20.6892 18.9376 20.8908 18.4792 20.8908ZM17.9292 18.7825C18.0851 19.2592 18.3051 19.4975 18.4517 19.5158C18.5984 19.5342 18.8734 19.36 19.1576 18.9475C19.4234 18.5533 19.4417 18.2692 19.3776 18.1408C19.3134 18.0125 19.0567 17.875 18.5801 17.875C18.2959 17.875 18.0851 17.9667 17.9659 18.1225C17.8559 18.2783 17.8376 18.5167 17.9292 18.7825Z" fill="white"/>
</svg>
