<svg width="12" height="12" viewBox="0 0 12 12" fill="none" xmlns="http://www.w3.org/2000/svg">
<path d="M2.86953 7.99963C2.92453 7.75463 2.82453 7.40463 2.64953 7.22963L1.43453 6.01463C1.05453 5.63463 0.904533 5.22963 1.01453 4.87963C1.12953 4.52963 1.48453 4.28963 2.01453 4.19963L3.57453 3.93963C3.79953 3.89963 4.07453 3.69963 4.17953 3.49463L5.03953 1.76963C5.28953 1.27463 5.62953 0.999634 5.99953 0.999634C6.36953 0.999634 6.70953 1.27463 6.95953 1.76963L7.81953 3.49463C7.88453 3.62463 8.01953 3.74963 8.16453 3.83463L2.77953 9.21963C2.70953 9.28963 2.58953 9.22463 2.60953 9.12463L2.86953 7.99963Z" fill="#E7BC0F"/>
<path d="M9.34932 7.23007C9.16932 7.41007 9.06932 7.75507 9.12932 8.00007L9.47432 9.50507C9.61932 10.1301 9.52932 10.6001 9.21932 10.8251C9.09432 10.9151 8.94432 10.9601 8.76932 10.9601C8.51432 10.9601 8.21432 10.8651 7.88432 10.6701L6.41932 9.80007C6.18932 9.66507 5.80932 9.66507 5.57932 9.80007L4.11432 10.6701C3.55932 10.9951 3.08432 11.0501 2.77932 10.8251C2.66432 10.7401 2.57932 10.6251 2.52432 10.4751L8.60432 4.39507C8.83432 4.16507 9.15932 4.06007 9.47432 4.11507L9.97932 4.20007C10.5093 4.29007 10.8643 4.53007 10.9793 4.88007C11.0893 5.23007 10.9393 5.63507 10.5593 6.01507L9.34932 7.23007Z" fill="#E7BC0F"/>
</svg>
